<!--?xml version="1.0" standalone="no"?-->
              <svg id="sw-js-blob-svg" viewBox="0 0 100 100" xmlns="http://www.w3.org/2000/svg" version="1.1">
                    <defs> 
                        <linearGradient id="sw-gradient" x1="0" x2="1" y1="1" y2="0">
                            <stop id="stop1" stop-color="rgba(248, 117, 55, 1)" offset="0%"></stop>
                            <stop id="stop2" stop-color="rgba(251, 168, 31, 1)" offset="100%"></stop>
                        </linearGradient>
                    </defs>
                <path fill="url(#sw-gradient)" d="M26.7,-31.6C34.1,-25.5,39.4,-16.7,41.5,-7C43.6,2.7,42.5,13.3,37.6,21.7C32.7,30.1,24.1,36.3,14.6,39.5C5.1,42.7,-5.3,43,-13.7,39.2C-22.1,35.5,-28.5,27.8,-32.6,19.4C-36.7,11,-38.7,1.9,-37.1,-6.5C-35.6,-15,-30.6,-22.8,-23.9,-29C-17.1,-35.2,-8.5,-39.9,0.5,-40.5C9.6,-41.1,19.2,-37.7,26.7,-31.6Z" width="100%" height="100%" transform="translate(50 50)" stroke-width="0" style="transition: all 0.3s ease 0s;" stroke="url(#sw-gradient)"></path>
              </svg>